<svg xmlns="http://www.w3.org/2000/svg" xmlns:xlink="http://www.w3.org/1999/xlink" id="Layer_1" width="24" height="24" x="0" y="0" enable-background="new 0 0 24 24" version="1.1" viewBox="0 0 24 24" xml:space="preserve"><path fill="#FFF" d="M0,0v24h24V0H0z M22.359,9.519h-6.387V6.113h0.575h5.813L22.359,9.519L22.359,9.519z M15.48,13.994H8.52	V10.01h6.96V13.994z M8.52,9.519V6.113h0.573h5.813h0.574v3.406H8.52z M7.453,6.113h0.575v3.406H1.64V6.113H7.453z M8.028,10.009	v3.984H1.64v-3.984H8.028z M1.641,14.484h6.388v3.978H1.641V14.484z M8.52,14.484h6.96v3.978H8.52V14.484z M15.972,14.484h6.387	v3.978h-6.387V14.484z M15.972,13.994V10.01h6.387v3.984H15.972z M1.641,22.359v-3.403h6.388v3.403H1.641z M8.52,22.359v-3.403h6.96	v3.403H8.52z M15.972,18.956h6.387v3.403h-6.387V18.956z"/></svg>